<?xml version="1.0" encoding="UTF-8"?><svg id="a" xmlns="http://www.w3.org/2000/svg" viewBox="0 0 230.35 230.67"><g id="b"><rect x="107.98" y="189.44" width="12" height="41.21" transform="translate(-.3 .16) rotate(-.08)" style="fill:#fff; stroke-width:0px;"/></g><g id="c"><rect x="52.26" y="194.73" width="41.21" height="12" transform="translate(-139.63 179.59) rotate(-64.37)" style="fill:#fff; stroke-width:0px;"/></g><g id="d"><rect x="19.27" y="168.49" width="41.21" height="12" transform="translate(-100.25 63.13) rotate(-38.65)" style="fill:#fff; stroke-width:0px;"/></g><g id="e"><rect x=".93" y="130.54" width="41.21" height="12" transform="translate(-30.02 8.29) rotate(-12.94)" style="fill:#fff; stroke-width:0px;"/></g><g id="f"><rect x="15.47" y="73.78" width="12" height="41.21" transform="translate(-75.33 94.46) rotate(-77.22)" style="fill:#fff; stroke-width:0px;"/></g><g id="g"><rect x="33.71" y="35.78" width="12" height="41.21" transform="translate(-29.14 52.37) rotate(-51.51)" style="fill:#fff; stroke-width:0px;"/></g><g id="h"><rect x="66.63" y="9.45" width="12" height="41.21" transform="translate(-5.84 34.6) rotate(-25.8)" style="fill:#fff; stroke-width:0px;"/></g><g id="i"><rect x="107.71" y="0" width="12" height="41.21" transform="translate(-.03 .16) rotate(-.08)" style="fill:#fff; stroke-width:0px;"/></g><g id="j"><rect x="134.21" y="23.94" width="41.21" height="12" transform="translate(60.85 156.57) rotate(-64.37)" style="fill:#fff; stroke-width:0px;"/></g><g id="k"><rect x="167.21" y="50.17" width="41.21" height="12" transform="translate(6.06 129.62) rotate(-38.65)" style="fill:#fff; stroke-width:0px;"/></g><g id="l"><rect x="185.55" y="88.13" width="41.21" height="12" transform="translate(-15.84 48.54) rotate(-12.94)" style="fill:#fff; stroke-width:0px;"/></g><g id="m"><rect x="200.22" y="115.67" width="12" height="41.21" transform="translate(27.71 307.25) rotate(-77.22)" style="fill:#fff; stroke-width:0px;"/></g><g id="n"><rect x="181.98" y="153.68" width="12" height="41.21" transform="translate(-65.43 212.95) rotate(-51.51)" style="fill:#fff; stroke-width:0px;"/></g><g id="o"><rect x="149.06" y="180" width="12" height="41.21" transform="translate(-71.85 87.47) rotate(-25.8)" style="fill:#fff; stroke-width:0px;"/></g></svg>